@startuml

title passive-vulnerability-detector
skinparam classAttributeIconSize 0

abstract class Data {
  - path
  + visualize()
  + take()
}

class PredictionData {
  - path
  + create_prediction()
}

class Main {
  + predict() <<static>>
}

' Third party sınıflar boş kutu
hide empty members

' Kalıtım ilişkileri
Data <|-- PredictionData : extends

' Kullanma ilişkileri
Main ..> PredictionData : uses

@enduml